<svg id="Capa_1" data-name="Capa 1" xmlns="http://www.w3.org/2000/svg" viewBox="0 0 600 600"><defs><style>.cls-1,.cls-3{fill:#fcf2e8;stroke:#ff0662;}.cls-1,.cls-2,.cls-3{stroke-linecap:round;stroke-miterlimit:10;stroke-dasharray:0 2;}.cls-2,.cls-4{fill:#ff0662;}.cls-2{stroke:#fcf2e8;}.cls-3{fill-rule:evenodd;}</style></defs><path class="cls-1" d="M232.5,349.6l-3.8-3.9-.2-4.2h-.1c0-.2-.1-.3-.1-.5a7.8,7.8,0,0,1,.1-4h-1a8.31,8.31,0,0,1-2.7-.3c-1.6-.5-6.7-2.3-7.9-6.4a6.07,6.07,0,0,1,1.5-5.8,9.62,9.62,0,0,1-.2-4.6c.1-.5.3-1.1.4-1.6-2.3-1-5.4-2.3-7.1-5.6a13.9,13.9,0,0,1-1.3-7.7v-.4c-.3,0-.6-.1-1-.1l-1-.2c-.5-.2-1.1-.4-1.6-.6a12.77,12.77,0,0,0-3.2-1,21.57,21.57,0,0,0-5.9,3.9l-.6.5c-1.2.8-2.1,1.5-3,2.2a30.08,30.08,0,0,1-5.7,3.9,18.44,18.44,0,0,1-3.2,1.2c-1.3.4-1.5.5-2,1.2-3,4.2-7.1,4.4-9.9,4.6a8.66,8.66,0,0,0-3.7.7,21.13,21.13,0,0,0-3.8,4c-2.4,3-5.2,6.5-9.6,7.5a6.88,6.88,0,0,1-1.3.2,4.88,4.88,0,0,1-4.9-4.2,6.13,6.13,0,0,1-5.4-6.4,9.37,9.37,0,0,1-4.5-2.2c-6.3-5.9-5.5-12-3.9-17.1.9-3,.1-5-3.8-8.9a6.83,6.83,0,0,0-1.3-.4,10.24,10.24,0,0,1-3.9-1.8c-.3.1-1.2.6-1.3.6a6.49,6.49,0,0,1-.2,4.1l-.3.5a7.38,7.38,0,0,1-2.4,2.3.1.1,0,0,0,.1.1c.9,1.8,2.5,5.1.3,8.6a18.86,18.86,0,0,1-4,4c-.7.6-1.3,1-1.8,1.5a15.78,15.78,0,0,0-1.8,3,16.84,16.84,0,0,1-4.3,5.9,12.68,12.68,0,0,0-2,2.4,14.25,14.25,0,0,1-6.6,5.8L97,327c0-.4-.1-.8-.1-1.2l-.8.5-.3.3H93.4a10.53,10.53,0,0,0-4.2.8,9.8,9.8,0,0,0-4.4,4.8c-.1.1-.1.2-.2.3a6.36,6.36,0,0,1-.6,1L82.9,335a11.67,11.67,0,0,0-.8,3.7c0,.2-.1.5-.1.8a11.63,11.63,0,0,0-2.9-.5,5.1,5.1,0,0,0-3,.8,4.2,4.2,0,0,0-3.1-1.7l-4.2,2.4c-.8,1.9-1.7,6.2-.4,9.4a6.11,6.11,0,0,0,3.5,3.6,8.4,8.4,0,0,0,2.4.6,5.92,5.92,0,0,0-3.6,3.2,5.32,5.32,0,0,0-.1,3.3.9.9,0,0,1-.5.1,11,11,0,0,1-1.4-.9c-1.5-1-3-2-4.9-2a4.87,4.87,0,0,0-4.4,2.7c-.6,1.2-1.6,3.3-.9,5.4a6.66,6.66,0,0,0,.6,1.2,5.24,5.24,0,0,0,0,2.5c0,6.9,3.4,8.9,7,11,1,.6,1.1,4,1.2,6,.1,1.4.1,2.7.3,3.8a5.38,5.38,0,0,1-1.2.9c-1.6,1.2-4,3-4.8,6.4-.8,3.7-1.8,8.2,4,11.8.8.5,1.7,1,2.5,1.5,1.4.9,2.9,1.7,4.2,2.6l-.5,4.8-.1.8c1.9.6,7.6,6.5,9.4,8.4a22.18,22.18,0,0,0,2.2,2.2c1.9,1.8,3.9,3.6,5.9,5.4a181.75,181.75,0,0,1,13.4,12.9c4.8,5.2,9.2,11,13.6,16.6l4,5.2a32.08,32.08,0,0,0,5.8,5.4,21.25,21.25,0,0,1,4.6,4.3l2.7,3.8c2.7,3.9,5.4,7.8,8.1,11.8,6.8,10.1,13.9,20.5,21.7,30l6.3.1.5-.6c3.4-3.9,8-9.3,7.3-16.2-.4-3.2-.2-4.1,1-7.1a11.55,11.55,0,0,0,.7-4.9,3.18,3.18,0,0,1,.2-1.4,5.24,5.24,0,0,1,1.1-1c1.7-1.4,5.3-4.3,3.7-9.3-.9-2.9-2.9-4.9-4.5-6.6-.5-.5-.9-.9-1.4-1.5a22.54,22.54,0,0,1-1.5-1.9l23-33.2c.3-.5,1-1.6,2-3.1,1.4-2.3,4.8-7.8,6.5-10.1l77.2,5.5,4.4-3.7a20.92,20.92,0,0,0-.2-5.1c-.3-1.9-.4-3,.1-4.2.4-.9.8-1.9,1.3-2.8a24.16,24.16,0,0,0,2.7-8.1c.7-7.3-6.7-9.1-10.3-10a18.33,18.33,0,0,1-2.7-.8c-1.9-1-2.2-2.5-2.2-7.3s0-13.1-9.8-15.2a15.72,15.72,0,0,0-2.3-.4,11.6,11.6,0,0,1-3.8-1,1.85,1.85,0,0,1-.2-.7,8,8,0,0,0-4.1-5.2,10.44,10.44,0,0,0-2.9-.9,2,2,0,0,1-.5-.1,23.58,23.58,0,0,1-1.2-2.8,18.37,18.37,0,0,0-3.7-6.6,10.61,10.61,0,0,0-1.5-1.5c-1.8-1.8-2.2-2.2-2.4-4.6a4.65,4.65,0,0,0-.9-2.3c-3-.2-6-.5-8.5-.8C234.9,349.8,233.4,349.6,232.5,349.6Z"/><path class="cls-1" d="M259,309.3s.3-8.1.3-8.3h-1.1a42.16,42.16,0,0,1-6-.4c-4.7-.6-7.2-2.8-9.9-5.2a15,15,0,0,1-2.2-2.4,6.53,6.53,0,0,0-.7-.8s-.1-.1-.5-.1l-1.5-.4a3.54,3.54,0,0,0-1.1-.3c-1.5-.4-4.1-1.1-5.7-3.3-.4,1-.7,2.1-.9,2.6l-.1.3c0,.6.1,1.5.1,2.5.3,3.9.5,6.5-1.2,8.3l-3.2,1.4a5.08,5.08,0,0,1-1.7-.3,10.48,10.48,0,0,1-3.8-2.3l-.5-.4-7.2-4.6a20.05,20.05,0,0,0-4.4-1.9,27.79,27.79,0,0,1-6.2-2.8l-.8-.5c-4.4-2.8-12.5-8-11-15.6a36.89,36.89,0,0,0,.7-9.7,23.87,23.87,0,0,0-.2-2.4,6.22,6.22,0,0,0-1.6-.1,10,10,0,0,0-1.6.2,11,11,0,0,1-2.7.4c-2,0-4.7-.8-6.4-4.4-.4-1-.8-2-1.1-3a12.27,12.27,0,0,0-.9-2.4,5.34,5.34,0,0,1-.6-1.4l-3.7-2.5.8-5.4h0c-5.8.6-9.9,3.5-13.6,6a40.52,40.52,0,0,1-6.2,3.7,25.86,25.86,0,0,1-9.9,1.7c-1.5,0-2.9-.1-4.4-.2l-.9.8a7.38,7.38,0,0,0-4.1-2.1,37.24,37.24,0,0,0-8.6-.9,73,73,0,0,0-8.4.5,5.55,5.55,0,0,0-1.7.3,5.07,5.07,0,0,1-1.3.2,6.58,6.58,0,0,0-3-.7c-4,0-5.3,3.6-5.8,5a.6.6,0,0,0-.1.4,4.25,4.25,0,0,0-1.1-.2,17.32,17.32,0,0,0-3.5-.5,7.17,7.17,0,0,0-5.7,2.6c-.2.2-1.1,1.4-1.4,1.8a5.18,5.18,0,0,0-4.7-2.4c-.5,0-1.2.1-2.2.2a58,58,0,0,0-6,1.3c-.2,0-.4.1-.7.1a8.67,8.67,0,0,0-4.9,1.8,5.08,5.08,0,0,0-1.8,4v1.3a12.65,12.65,0,0,0,1.5,7.5,19.34,19.34,0,0,1,.4,2.7,7.28,7.28,0,0,0-1.4,5.4c.6,4,4.4,6.4,7.5,8.2a23.15,23.15,0,0,1,2.9,2c1.6,2.1,2.3,3.1,2.5,4.6.5,4.7,5.1,5.6,6.8,5.9h.2a34.29,34.29,0,0,1,4.4,9.9,6.46,6.46,0,0,0-3.1,4.7c-.2,2.6,1.6,4.4,2.6,5.3v.3a4.87,4.87,0,0,0,.1,1.2l5.6,3.4c3.5-1.3,5.3-3.9,6.6-5.8a12.68,12.68,0,0,1,2-2.4,17.79,17.79,0,0,0,4.3-5.9,15.78,15.78,0,0,1,1.8-3,9.51,9.51,0,0,1,1.8-1.5,16.76,16.76,0,0,0,4-4c2.2-3.4.6-6.8-.3-8.6a.1.1,0,0,0-.1-.1,7.38,7.38,0,0,0,2.4-2.3l.3-.5a5.88,5.88,0,0,0,.2-4.1c.1,0,1-.5,1.3-.6a9.62,9.62,0,0,0,3.9,1.8,10.38,10.38,0,0,1,1.3.4c3.8,4,4.7,6,3.8,8.9-1.6,5.1-2.4,11.2,3.9,17.1a8.46,8.46,0,0,0,4.5,2.2,6.48,6.48,0,0,0,.2,1.9c.8,3.2,3.5,4.1,5.2,4.5a4.93,4.93,0,0,0,4.9,4.2,5.85,5.85,0,0,0,1.3-.2c4.4-1,7.1-4.4,9.6-7.5,1.3-1.6,2.6-3.3,3.8-4a8.66,8.66,0,0,1,3.7-.7c2.8-.1,6.9-.4,9.9-4.6.5-.7.7-.8,2-1.2a22.05,22.05,0,0,0,3.2-1.2,30.08,30.08,0,0,0,5.7-3.9c.9-.7,1.8-1.4,3-2.2l.6-.5a24.13,24.13,0,0,1,5.9-3.9,9.64,9.64,0,0,1,3.2,1c.6.2,1.1.4,1.6.6l1,.2c.4,0,.8.1,1,.1v.4a13.67,13.67,0,0,0,1.3,7.7c1.7,3.2,4.8,4.6,7.1,5.6a9.36,9.36,0,0,0-.4,1.6,9.62,9.62,0,0,0,.2,4.6,6,6,0,0,0-1.5,5.8c1.1,4.1,6.3,6,7.9,6.4a8.31,8.31,0,0,0,2.7.3h1a9.1,9.1,0,0,0-.1,4,4.33,4.33,0,0,0,.1.5h.1l.2,4.2,3.8,3.9c.9.1,2.4.2,4.4.4,2.5.2,5.5.5,8.5.8,4.2.3,8.4.6,11.3.6,2.3,0,7.2,0,7.6-4.3l.9-9.3c.8-7.7,1.5-15.6,2.1-23.6C258.9,313.1,258.9,312.2,259,309.3Z"/><path class="cls-1" d="M373,318.3l-4.2-2.1a5.92,5.92,0,0,1-.4-.6c-1.3-1.9-2.2-3.5-2.3-5.2a6.35,6.35,0,0,1,1.2-4.5,4.42,4.42,0,0,1-.6-1.6c-.7-3.3,2-5.4,3.4-6.5a2.18,2.18,0,0,0,.5-.4,21.77,21.77,0,0,0,.5-3.9l.1-1.5c.2-3.1.4-6.1.5-9.2.2-3.8.3-7.8.7-11.8l4.1-43.6c.3-3.4-1.5-6.3-3.9-10-.9-1.4-1.8-2.8-2.6-4.3s-1.8-3.7-1-6.1c.1-.2.2-.3.2-.4l-3.8-7.2c-.2-.4-.5-.8-.7-1.2-1.2-1.8-3.2-4.9-2.4-8.2a10.63,10.63,0,0,1-1.1-.9,18.79,18.79,0,0,1-4.8-16.6,19.45,19.45,0,0,1,.6-2.7,22.92,22.92,0,0,0,.8-4.1,4.79,4.79,0,0,1-2.9-3.5l-2.3,1.9h.1a3.17,3.17,0,0,0,1.3-.2,8.15,8.15,0,0,1-3.9,1.2,5.68,5.68,0,0,1-3.3-1.1,5.47,5.47,0,0,1-2.1-3.8,4.93,4.93,0,0,1-1.8-3.5,5.62,5.62,0,0,1-1.5-5l2.3-2a4.69,4.69,0,0,1-1.5-4,5,5,0,0,1,.2-1.2,8,8,0,0,1-2.5-1.1.37.37,0,0,0-.1.3.77.77,0,0,1,.1-.3h0l-1.5,2.8a7.52,7.52,0,0,1-4.6,2,4.68,4.68,0,0,1-4.4-2.9c-.4,0-.7.1-1,.1-2.8,0-6.1-1.7-6.1-6.7v-2c-.3,0-.7-.1-1-.1-2.2-.2-6-.4-8.1-3.7l-.2-.4a6.61,6.61,0,0,1-.3-4.1c.1-1.7.1-3.3.2-4.9a69.4,69.4,0,0,1,.5-9.1,23.3,23.3,0,0,1-2.6,4.1,12.2,12.2,0,0,0-2.3,6,12.86,12.86,0,0,1-.4,1.9,36.21,36.21,0,0,0-1.9,12.3c0,1.6-.1,3.2-.2,4.9a39.53,39.53,0,0,1-1.8,7.6c-.4,1.5-.9,3-1.2,4.4a25.59,25.59,0,0,0-.2,9.5,30.83,30.83,0,0,1,.3,5.2c-.3,3.4-3.8,4.6-5.5,5-7.3,1.1-10.6,9.1-10.6,16a28.65,28.65,0,0,1-1,6.1c-.3,1.2-.6,2.4-.8,3.6s-.3,2.2-.4,3.3a17.32,17.32,0,0,1-.5,3.5c-.4,1.2-1.8,2.2-4.1,3.6a22.69,22.69,0,0,0-5.4,4.1c-1.8,2-4.2,3.2-6.9,4.5a39.08,39.08,0,0,0-7.2,4.3c-.5.4-1,.9-1.6,1.3a13.56,13.56,0,0,1-3.6,2.6,14.36,14.36,0,0,1-3.5.7,21.06,21.06,0,0,0-4,.7,19.62,19.62,0,0,0-6.4,3.5,21.41,21.41,0,0,1-1.9,1.3,19,19,0,0,0-5.4,4.4,4.1,4.1,0,0,0-1.1-.1c-2.3,0-4.7,1.2-7.3,2.6l-.6.3c-1.6.6-3.2,1.3-4.8,2s-3.2,1.3-4.8,2l-1.3.9a2.7,2.7,0,0,0-.7-.8c-.5-.7-1.3-1.7-1.5-1.9-1.3-4.2-6.4-4.2-8.1-4.2a80.63,80.63,0,0,0-10,1c-1.4.2-2.6.4-3.2.4h-1.2c-1.2,0-2.4,0-3.7-.1s-2.7-.1-4-.1a29.67,29.67,0,0,0-9.3,1.2l-.3,2-.8,5.4,3.7,2.5a5.34,5.34,0,0,0,.6,1.4,11,11,0,0,1,.9,2.4,26.54,26.54,0,0,0,1.1,3c1.7,3.6,4.4,4.4,6.4,4.4a11,11,0,0,0,2.7-.4,11.55,11.55,0,0,1,1.6-.2c.8,0,1.3.1,1.6.1a23.87,23.87,0,0,1,.2,2.4,36.89,36.89,0,0,1-.7,9.7c-1.5,7.6,6.6,12.8,11,15.6l.8.5a33.22,33.22,0,0,0,6.2,2.8,25.34,25.34,0,0,1,4.4,1.9l7.2,4.6.5.4a11.39,11.39,0,0,0,3.8,2.3,4.67,4.67,0,0,0,1.7.3l3.2-1.4c1.7-1.8,1.5-4.4,1.2-8.3a11.22,11.22,0,0,1-.1-2.5l.1-.3c.2-.5.5-1.6.9-2.6,1.6,2.2,4.2,2.9,5.7,3.3.4.1.8.2,1.1.3l1.5.4a1.21,1.21,0,0,1,.5.1c.1.1.4.5.7.8a21,21,0,0,0,2.2,2.4c2.7,2.3,5.2,4.5,9.9,5.2,2.1.3,4.1.3,6,.4h1.1c0,.1-.3,8.3-.3,8.3-.1,2.9-.1,3.8,8.3,4.9,4.1.5,10.2,1.1,19.3,1.9,13.4,1.2,29.6,2.7,41.1,3.7,6.7.6,11.8,1,14,1.2l31.9,3h.4c3.3,0,3.8-1.1,4.5-7.5-.2.1-.5.2-.7.3A14.23,14.23,0,0,1,373,318.3ZM217.9,255.6a9.83,9.83,0,0,0,3.4-.7,7.2,7.2,0,0,0,.8-.3c.2,0,.4.1.7.1.5.1,1.2.2,2,.3h.5c3,0,5-2.2,6.4-3.9.3-.3.5-.6.7-.8a8.67,8.67,0,0,1,2.1-.9c.5-.2,1-.3,1.6-.5l1.7-2.3a8.62,8.62,0,0,0,1.7.1,21.33,21.33,0,0,0,2.2-.1c.6,0,.9.1,2.1.9a26.28,26.28,0,0,0,2.6,1.5,26.15,26.15,0,0,1-.9,3.3c-.1.4-.3.8-.4,1.1a11.92,11.92,0,0,1-2,.8A14.15,14.15,0,0,0,238,257l-1.4.7c-2.4,1.2-3.6,2.3-4.2,4.2a17.86,17.86,0,0,1-6.6-2.3,14.45,14.45,0,0,0-7.5-2.6H218a15.6,15.6,0,0,0-.5-1.6C217.6,255.6,217.7,255.6,217.9,255.6Z"/><path class="cls-2" d="M542,112.7c-.4-.2-.9-.4-1.3-.6a8.72,8.72,0,0,0-1.5-.6h0c-.4-3.1.2-7.3.7-10.2.5-3.3.4-6.6-3.9-8.2a4.15,4.15,0,0,1-1.3-.7l-.3-.2a16.26,16.26,0,0,1-.7-2.6,13.64,13.64,0,0,0-.8-2.8c-2.1-5.2-9.7-7.6-14.2-7.6a9.72,9.72,0,0,0-3.1.4c-.5.1-1.7.3-3.2.6-8.1,1.4-12.5,2.2-14.5,4a5.89,5.89,0,0,1,2.2,5.5L498.7,104l-5.5,3.5-.2-.1c-.2,1.3-.4,2.7-.6,3.9l5.3,1c.4.1.7.1,1.1.2l2.4-1.9h.6a10.53,10.53,0,0,1,3.7.9l.4.2,2.7,5.2-1.3,4.2a4.54,4.54,0,0,1-.2.8,4.39,4.39,0,0,1-4.4,3.9l-1.2-.1c-1.6,0-3.5-.1-4.9-1.7l-.1-.3a.6.6,0,0,1-.4-.1,3.6,3.6,0,0,1-2.4,1.7,15.68,15.68,0,0,1-1.3,2.6l-3.6,5.1c3.1,3.3,3.6,5.1,2.7,9.8,0,.2-.1.5-.1.9-.3,2.9-.9,8.4-5.6,8.4a29.27,29.27,0,0,1-4.7-.7c-.3-.1-.6-.1-.9-.2-.1,1-.2,2.2-.2,2.7s-.1,1-.1,1.3a9.74,9.74,0,0,0-.1,1.6c-.1,5.2-3.3,6.3-5.9,6.3a7.08,7.08,0,0,1-1.4-.1l-.8-.2a6.72,6.72,0,0,1-4.9-5.3H466a4.36,4.36,0,0,1-.7,1.7,4.48,4.48,0,0,1-2.3,2.2c0,.1,0,.3.1.3a6.8,6.8,0,0,1,.2,2.3l-4.5,3.7c-.4,0-1,.5-1.6.9a10.24,10.24,0,0,1-6.3,2.6h-.6a11.81,11.81,0,0,1-4.8-1.5,4.32,4.32,0,0,0-1.7-.7,13.8,13.8,0,0,0-4.2.9,30.86,30.86,0,0,1-4.8,1.1c-.4,0-.8.1-1.1.1a8.75,8.75,0,0,1-2.4-.3h-.1a6.89,6.89,0,0,0-.3.8c-.5,1.4-1.5,4.5-4.9,5.2a15.42,15.42,0,0,1-3.7.3,10.06,10.06,0,0,0-2.7.3c.1.1-.2.9-.4,1.5-.6,1.9-2.1,6.3-6.9,6.3a3.75,3.75,0,0,1-1-.1.37.37,0,0,1-.1.3c-.5,2-1.6,6.5-6.3,6.9-1.3,3.6-3.6,4.4-5.3,4.4a4.06,4.06,0,0,1-1.9-.4l-.4.4a5,5,0,0,1,.1,2.7,6.15,6.15,0,0,1-5.9,4.4h-.4a4.45,4.45,0,0,1-4.5,3.9,8.14,8.14,0,0,1-4.1-1.5c-.1,0-.1-.1-.2-.1a32.84,32.84,0,0,0-3.7,2.4,24.39,24.39,0,0,1-2.3,1.6l-5.9-1.5-1.3-2.5c-.1.2-.2.3-.2.4-.8,2.4.2,4.6,1,6.1s1.7,2.9,2.6,4.3c2.3,3.7,4.2,6.6,3.9,10l-4.1,43.6c-.4,4-.5,7.9-.7,11.8-.1,3.1-.2,6.1-.5,9.2L371,293a14.79,14.79,0,0,1-.5,3.9c-.2.1-.3.3-.5.4-1.4,1.1-4.1,3.2-3.4,6.5a5.94,5.94,0,0,0,.6,1.6,6.35,6.35,0,0,0-1.2,4.5,10,10,0,0,0,2.3,5.2,6.13,6.13,0,0,1,.4.6l4.2,2.1a18.94,18.94,0,0,0,4.7-1.4,4.88,4.88,0,0,0,.7-.3,2.61,2.61,0,0,1,1.1-.3,2.78,2.78,0,0,1,1.3.7c.2.2.6.5,1,.9,3.2,2.9,6.1,5.3,9.2,5.3a5.42,5.42,0,0,0,4.5-2.4,10.93,10.93,0,0,0,1.4-2.9,8.1,8.1,0,0,1,.6-1.3l.8-.6c2.1-1.7,4.7-3.7,6.2-6.7a30.26,30.26,0,0,0,1.2-3.2c.3-.9.5-1.7.6-2,.2-.1.5-.2.7-.3a9.53,9.53,0,0,0,4-2.9,9,9,0,0,0,1.6-4,4.05,4.05,0,0,1,.3-1c.3-.4.7-.7,1-1.1a12.07,12.07,0,0,0,4-6.9c0-.3.2-1,3.3-1a16.2,16.2,0,0,1,2.2.1,2.92,2.92,0,0,1,.9.2,8.72,8.72,0,0,0,2.5.4,5.53,5.53,0,0,0,5.1-3.1,17.6,17.6,0,0,1,2.8-3.6l1.9-2.1c1.9-2.1,4.4-5,4-8.5a7.05,7.05,0,0,0,3.1-1.9,5.48,5.48,0,0,1-.2,3.1,16.59,16.59,0,0,1-2,2.5c-2.5,3-5,6.1-4.4,9.4.4,2.3,2.5,3.9,5.6,6l.5.4c.6.4,1.4.8,2.2,1.3a5.13,5.13,0,0,0,1.2.5h0a20.27,20.27,0,0,1,1,5.7,3.44,3.44,0,0,1-.1.9c-.2,3.1-.7,9.6,4.6,10.7l2.6-3.4,2.1.9c.4-1,4.6-10.1,5.2-11.1l.6-1.1a15.37,15.37,0,0,1,2.2-3.4l1.5-2.8c.1-1.1.2-2.2.2-3.4.1-1,.1-2,.2-3.1.3-3.4,1.3-5.3,4.2-8.3,3.8-3.9,4.8-9.1,5.7-13.7a30.05,30.05,0,0,1,.7-3.2,61.51,61.51,0,0,1,4.8-12.3c.2-.3.5-.8,1-1.5,2.8-4.1,5.6-8.3,3.8-11.9a5.79,5.79,0,0,0-1.4-1.7,10.28,10.28,0,0,0,3.5-2.6c3.3-3.6,4.1-8.4,4.4-12.1l-3.7-4.5h-.9a13.36,13.36,0,0,0-6.2,1.9,19.49,19.49,0,0,1-2.2,1,29.62,29.62,0,0,1-3.1.3,4.1,4.1,0,0,0-1.1.1c-.1-.2-.1-.5-.2-.7a4.87,4.87,0,0,0,1.1-.4c2.6-1.1,3.7-3.6,4.5-5.3a11.73,11.73,0,0,1,.5-1.1c.2-.2.2-.3,1.6-.5a12.4,12.4,0,0,0,4.6-1.4c4.6-2.7,4.1-8.2,3.8-11.2l-.1-.9c-.9-12,5.7-20.1,14.5-29.5a34.76,34.76,0,0,1,5.5-4.5,40.9,40.9,0,0,0,7.2-6.1,25.82,25.82,0,0,0,2.2-3.1c.9-1.4,2.9-4.3,3.7-4.7l1.4-.6c6.4-4.4,8.1-8.3,9.9-14.3a9.32,9.32,0,0,1,1.6-2.5,22.74,22.74,0,0,0,2.5-3.8l.3-.8a10,10,0,0,1,.9-1.8.77.77,0,0,1-.5.2Z"/><path class="cls-3" d="M506,111.8l-.4-.2a10.53,10.53,0,0,0-3.7-.9h-.6l-2.4,1.9c-.3-.1-.7-.1-1.1-.2l-5.3-1c.2-1.2.4-2.6.6-3.9l.2.1,5.5-3.5,1.4-14.3a6.3,6.3,0,0,0-2.2-5.5,8.78,8.78,0,0,0-3.5-1.5,70.65,70.65,0,0,0-7.7-1,49.23,49.23,0,0,1-8.1-1.2,12.18,12.18,0,0,1-3.8-2.1,26.17,26.17,0,0,0-5-2.8,29.63,29.63,0,0,0-10.5-2,28.32,28.32,0,0,0-3,.2,13,13,0,0,0-4.6,1.7,5.87,5.87,0,0,1-2,.8,9.76,9.76,0,0,1-1.6-.7,13.65,13.65,0,0,0-4.2-1.6,22.18,22.18,0,0,0-3.7-.3c-5.6,0-11.1,2-16.6,6-5,3.6-11.8,4.1-17.8,4.1-2.3,0-4.5-.1-6.7-.1s-4.4-.1-6.6-.1c-1.4,0-2.7,0-4.1.1-1.8.1-3.5.2-5.3.2a23.66,23.66,0,0,1-4.9-.4H377l-20.3,2.8c-5.9.8-11.3,3.1-16.6,5.3a76.2,76.2,0,0,1-11.2,4.1,16.25,16.25,0,0,1-1.9.4c-2.6.5-5.9,1.1-8.7,4.7a22.64,22.64,0,0,0-3.6,8.2l-.3,1.1a31.48,31.48,0,0,0-.9,4.2,69.4,69.4,0,0,0-.5,9.1,41,41,0,0,1-.2,4.9,6.61,6.61,0,0,0,.3,4.1l.2.4c2,3.3,5.8,3.5,8.1,3.7a3.4,3.4,0,0,1,1,.1v2c0,4.9,3.3,6.7,6.1,6.7a3.4,3.4,0,0,0,1-.1,4.53,4.53,0,0,0,4.4,2.9,7.79,7.79,0,0,0,4.6-2l1.5-2.8h0a.44.44,0,0,1-.1.3c0-.1.1-.2.1-.3a5.08,5.08,0,0,0,2.5,1.1,5.36,5.36,0,0,0,1.3,5.2l-2.3,2a5.62,5.62,0,0,0,1.5,5,4.93,4.93,0,0,0,1.8,3.5,5.38,5.38,0,0,0,5.4,4.9,8.55,8.55,0,0,0,3.9-1.2,3.17,3.17,0,0,1-1.3.2h-.1l2.3-1.9a4.79,4.79,0,0,0,2.9,3.5,37.32,37.32,0,0,1-.8,4.1,16.75,16.75,0,0,0-.6,2.7,18.79,18.79,0,0,0,4.8,16.6,7.29,7.29,0,0,0,1.1.9c-.7,3.3,1.2,6.4,2.4,8.2a7.46,7.46,0,0,1,.7,1.2l3.8,7.2,1.3,2.5,5.9,1.5c.7-.5,1.5-1,2.3-1.6a19.36,19.36,0,0,1,3.7-2.4c.1,0,.1.1.2.1a8.14,8.14,0,0,0,4.1,1.5,4.53,4.53,0,0,0,4.5-3.9h.4a6.06,6.06,0,0,0,5.9-4.4,5,5,0,0,0-.1-2.7l.4-.4a6.46,6.46,0,0,0,1.9.4c1.7,0,4-.8,5.3-4.4,4.7-.5,5.8-5,6.3-6.9a.37.37,0,0,1,.1-.3c.3,0,.7.1,1,.1,4.9,0,6.3-4.4,6.9-6.3.2-.6.5-1.4.4-1.5a15.66,15.66,0,0,1,2.7-.3,24,24,0,0,0,3.7-.3c3.4-.8,4.4-3.8,4.9-5.2a6.89,6.89,0,0,0,.3-.8h.1a15.69,15.69,0,0,0,2.4.3,4.1,4.1,0,0,0,1.1-.1,28.41,28.41,0,0,0,4.8-1.1,17.63,17.63,0,0,1,4.2-.9,4.32,4.32,0,0,1,1.7.7,11.81,11.81,0,0,0,4.8,1.5h.6a9.47,9.47,0,0,0,6.3-2.6,3.3,3.3,0,0,1,1.6-.9l4.5-3.7a6.65,6.65,0,0,0-.2-2.3.37.37,0,0,0-.1-.3,4.48,4.48,0,0,0,2.3-2.2,6.69,6.69,0,0,0,.7-1.7h.8a6.56,6.56,0,0,0,4.9,5.3l.8.2c.6,0,1,.1,1.4.1,2.6,0,5.8-1.1,5.9-6.3a9.74,9.74,0,0,1,.1-1.6c0-.3.1-.8.1-1.3s.1-1.7.2-2.7c.3.1.6.1.9.2a20.29,20.29,0,0,0,4.7.7c4.7,0,5.3-5.5,5.6-8.4,0-.4.1-.7.1-.9.9-4.6.4-6.5-2.7-9.8l3.6-5.1a9,9,0,0,0,1.3-2.6,3.68,3.68,0,0,0,2.4-1.7.6.6,0,0,1,.4.1l.1.3c1.4,1.6,3.3,1.6,4.9,1.7l1.2.1a4.39,4.39,0,0,0,4.4-3.9,4.5,4.5,0,0,1,.2-.8l1.3-4.2Z"/><path class="cls-4" d="M339.69,404.77q0,10.32-9.64,13.6v.76a19.74,19.74,0,0,0,.12,2.8,3.68,3.68,0,0,0,1.28,2.4,5,5,0,0,0,3.36,1.12,4.68,4.68,0,0,0,1.44-.2,1,1,0,0,1,.44-.12c.19,0,.28.12.28.36s-.45.61-1.36.86a12.76,12.76,0,0,1-8.32-.74c-2.18-1.09-3.28-3.09-3.28-6v-1.24a14.58,14.58,0,0,1-7.53-5.14,14.24,14.24,0,0,1-2.59-8.62q0-7.56,5.24-11.56a12.68,12.68,0,0,1,7.88-2.76,11.53,11.53,0,0,1,9.06,4.14A15.12,15.12,0,0,1,339.69,404.77Zm-7,1.24q0-8.72-1.92-12.6a4.07,4.07,0,0,0-3.92-2.44q-2.84,0-4.38,3.44c-1,2.29-1.54,5.56-1.54,9.8q0,8.6,2.48,12.2a4.26,4.26,0,0,0,3.76,1.8,3.76,3.76,0,0,0,3.28-1.52Q332.7,413.5,332.69,406Z"/><path class="cls-4" d="M363.21,417.09c0,.21-.22.33-.68.36a40.39,40.39,0,0,0-5,.38,6.29,6.29,0,0,0-2.4.94.77.77,0,0,1-.44.16c-.1,0-.16-.11-.16-.32v-1.72a4.14,4.14,0,0,0,0-.64,7.37,7.37,0,0,1-5.44,2.68,5.29,5.29,0,0,1-4.13-1.68c-.63-.7-.95-2-.95-3.85V403c0-.58-.08-1-.25-1.08a3.29,3.29,0,0,0-1.44-.24c-.69,0-1-.13-1-.32s.19-.32.56-.32h.44c.4,0,1,0,1.82.06s1.37.06,1.66.06l.82-.06c.5,0,1.22-.06,2.18-.06h.76v4.34c0,2.06,0,3.58-.08,4.54s-.08,1.38-.08,1.25c0,2.81.18,4.57.54,5.26a1.79,1.79,0,0,0,1.7,1.05A3.21,3.21,0,0,0,354,416a1.83,1.83,0,0,0,.42-.91c0-.3.06-1.06.06-2.26v-6.9c0-1.95,0-3.13-.08-3.53s-.38-.76-1-.76h-1.11c-.36,0-.55-.11-.55-.32s.72-.24,2.15-.24c1.25,0,3.23,0,5.93,0v13a16.75,16.75,0,0,0,.08,2.22c.06.23.26.38.6.46a16.22,16.22,0,0,0,2.16.08C363,416.77,363.21,416.88,363.21,417.09Z"/><path class="cls-4" d="M374.29,418.13c0,.19-.12.28-.36.28H363.85c-.32,0-.48-.09-.48-.26s.31-.2.92-.22a2.92,2.92,0,0,0,1.6-.3,3,3,0,0,0,.24-1.59V404.5a3.55,3.55,0,0,0-.26-1.83c-.17-.2-.7-.3-1.58-.3a5.7,5.7,0,0,1-1,0c-.09,0-.14-.12-.14-.28s.2-.28.6-.28a19.81,19.81,0,0,0,7.52-1.36c.06.32.12,1.2.2,2.64v12.6q0,1.64.3,1.92a4.08,4.08,0,0,0,2.06.28C374.15,417.85,374.29,417.94,374.29,418.13Zm-2.8-25.36a2.64,2.64,0,0,1-.78,1.92,2.52,2.52,0,0,1-1.88.8,2.63,2.63,0,0,1-1.92-.76,2.58,2.58,0,0,1-.78-1.92,2.39,2.39,0,0,1,.78-1.84,2.84,2.84,0,0,1,2-.72,2.56,2.56,0,0,1,1.85.72A2.41,2.41,0,0,1,371.49,392.77Z"/><path class="cls-4" d="M396.09,418.13c0,.21-.33.32-1,.32h-8.56c-.37,0-.56-.1-.56-.3s.16-.26.47-.26h.32c.68,0,1.08-.09,1.19-.26a4.73,4.73,0,0,0,.18-1.79v-7.76c0-2.87-.18-4.58-.55-5.15a1.86,1.86,0,0,0-1.69-.72,2.75,2.75,0,0,0-2,.76,2.51,2.51,0,0,0-.79,1.91V417a.83.83,0,0,0,.34.62,3.57,3.57,0,0,0,1.3.18c.22,0,.32.08.32.24s-.09.25-.28.28-.85,0-2,0-2.09,0-2.84,0c-1.47.05-3,.08-4.48.08-.32,0-.48-.09-.48-.28s.41-.32,1.22-.32,1.29-.16,1.42-.48l.12-.56v-9.17c0-2.58,0-3.93-.08-4q-.12-.6-1.08-.6h-1.36c-.43,0-.64-.09-.64-.26s.16-.27.48-.3a14.5,14.5,0,0,0,7.13-1.88,1.14,1.14,0,0,1,.43-.16c.22,0,.32.21.32.64v2.28a6.57,6.57,0,0,1,5.44-2.76c2.29,0,3.79.8,4.48,2.4a6.82,6.82,0,0,1,.54,2.24c.07.83.1,2.53.1,5.12v5.8a3,3,0,0,0,.2,1.46c.13.15.57.22,1.3.22S396.09,417.92,396.09,418.13Z"/><path class="cls-4" d="M409.89,415.81c0,.29-.25.68-.76,1.16a7.59,7.59,0,0,1-5.44,1.88c-2.13,0-3.52-.52-4.2-1.56a2.67,2.67,0,0,1-.46-1.12c0-.35-.06-1.24-.06-2.68v-1.92c0-.51.08-1,.08-1.6l-.08-.84v-6.48c0-.48-.07-.76-.2-.84a3.27,3.27,0,0,0-1.2-.12c-.8,0-1.2-.11-1.2-.32s.15-.27.44-.32q3.76-.12,6.48-4.08c.24-.37.43-.56.56-.56s.24.19.24.56c0,2.29.07,3.55.28,3.76a3.47,3.47,0,0,0,2,.32,11.53,11.53,0,0,0,2.36-.16.32.32,0,0,1,.16,0c.11,0,.16.08.16.25,0,.39-.17.59-.51.59-1.09,0-2.29,0-3.61,0h-.56v.84q0,10.67.16,12.49c.25,1.54,1,2.31,2.28,2.31a3.81,3.81,0,0,0,2.19-1.2c.43-.37.7-.56.81-.56S409.89,415.68,409.89,415.81Z"/><path class="cls-4" d="M427.25,416.25c0,.22-.21.52-.64.9a6.05,6.05,0,0,1-4.24,1.58A3.42,3.42,0,0,1,420,418a4.1,4.1,0,0,1-1-2.47q-1.8,3.29-4.92,3.28a3.72,3.72,0,0,1-2.78-1.08,3.81,3.81,0,0,1-1.06-2.8q0-5,8.64-6v-.84a23.9,23.9,0,0,0-.28-4.92l0-.2a2.62,2.62,0,0,0-2.84-2,2.93,2.93,0,0,0-2.12.76,2.14,2.14,0,0,0-.8,1.48q0,.4,1,.48c1,.08,1.44.67,1.44,1.76a2,2,0,0,1-.58,1.46,2,2,0,0,1-1.5.58,2.64,2.64,0,0,1-1.9-.7,2.36,2.36,0,0,1-.74-1.78,4,4,0,0,1,1.72-3.12,7,7,0,0,1,4.52-1.4c2.77,0,4.71.49,5.8,1.48q1.32,1.24,1.32,4.32v6.84c0,1.33,0,2.11,0,2.32.13,1.12.52,1.68,1.16,1.68a2.78,2.78,0,0,0,1.68-1,.56.56,0,0,1,.32-.2A.18.18,0,0,1,427.25,416.25Zm-8.36-4.76v-2c-2.59.51-3.88,2-3.88,4.4,0,1.87.64,2.8,1.92,2.8a1.56,1.56,0,0,0,1.52-1.2A13.12,13.12,0,0,0,418.89,411.49Z"/><path class="cls-4" d="M448.25,418.13c0,.21-.33.32-1,.32h-8.56c-.37,0-.56-.1-.56-.3s.16-.26.47-.26h.32c.68,0,1.08-.09,1.19-.26a4.73,4.73,0,0,0,.18-1.79v-7.76c0-2.87-.18-4.58-.55-5.15a1.88,1.88,0,0,0-1.69-.72,2.75,2.75,0,0,0-2,.76,2.51,2.51,0,0,0-.79,1.91V417a.8.8,0,0,0,.34.62,3.53,3.53,0,0,0,1.3.18c.21,0,.32.08.32.24s-.09.25-.28.28-.85,0-2,0-2.09,0-2.84,0c-1.47.05-3,.08-4.48.08-.32,0-.48-.09-.48-.28s.41-.32,1.22-.32,1.29-.16,1.42-.48l.12-.56v-9.17c0-2.58,0-3.93-.08-4q-.12-.6-1.08-.6h-1.36c-.43,0-.64-.09-.64-.26s.16-.27.48-.3a14.42,14.42,0,0,0,7.12-1.88,1.23,1.23,0,0,1,.44-.16c.22,0,.32.21.32.64v2.28a6.57,6.57,0,0,1,5.44-2.76c2.29,0,3.79.8,4.48,2.4a7.08,7.08,0,0,1,.54,2.24c.07.83.1,2.53.1,5.12v5.8a3,3,0,0,0,.2,1.46c.13.15.57.22,1.3.22S448.25,417.92,448.25,418.13Z"/><path class="cls-4" d="M466.77,416.25c0,.22-.21.52-.64.9a6.05,6.05,0,0,1-4.24,1.58,3.42,3.42,0,0,1-2.38-.69,4.1,4.1,0,0,1-1-2.47q-1.8,3.29-4.92,3.28a3.72,3.72,0,0,1-2.78-1.08,3.81,3.81,0,0,1-1.06-2.8q0-5,8.64-6v-.84a23.9,23.9,0,0,0-.28-4.92l0-.2a2.62,2.62,0,0,0-2.84-2,2.93,2.93,0,0,0-2.12.76,2.14,2.14,0,0,0-.8,1.48q0,.4,1,.48c1,.08,1.44.67,1.44,1.76a2,2,0,0,1-.58,1.46,2,2,0,0,1-1.5.58,2.64,2.64,0,0,1-1.9-.7,2.36,2.36,0,0,1-.74-1.78,4,4,0,0,1,1.72-3.12,7,7,0,0,1,4.52-1.4c2.77,0,4.71.49,5.8,1.48q1.32,1.24,1.32,4.32v6.84c0,1.33,0,2.11,0,2.32.13,1.12.52,1.68,1.16,1.68a2.78,2.78,0,0,0,1.68-1,.56.56,0,0,1,.32-.2A.18.18,0,0,1,466.77,416.25Zm-8.36-4.76v-2c-2.59.51-3.88,2-3.88,4.4,0,1.87.64,2.8,1.92,2.8a1.56,1.56,0,0,0,1.52-1.2A13.12,13.12,0,0,0,458.41,411.49Z"/><path class="cls-4" d="M497.89,416.81c0,1.49-1,2.24-2.92,2.24a7.69,7.69,0,0,1-5.88-2.33,6.65,6.65,0,0,1-2-3.85l-.4-3.29a8.61,8.61,0,0,0-1.46-4.37,4.16,4.16,0,0,0-3.42-1.2v9.11c0,2.11,0,3.25,0,3.41a1,1,0,0,0,.56.94,5.82,5.82,0,0,0,2.12.26q1,0,1,.36c0,.21-.16.32-.48.32H473c-.37,0-.56-.09-.56-.29s.55-.34,1.64-.39c.91-.05,1.44-.27,1.6-.64a6.45,6.45,0,0,0,.12-1.69V394.74a20.44,20.44,0,0,0-.08-2.46.84.84,0,0,0-.52-.59,4.89,4.89,0,0,0-1.8-.24c-.59,0-.88-.12-.88-.36s.12-.3.36-.34a17.11,17.11,0,0,1,1.92-.06h8q5.6,0,7.64.88a5.75,5.75,0,0,1,2.56,2.08,5.32,5.32,0,0,1,1,3.08q0,3.84-4,5.68a18.49,18.49,0,0,1-5.2,1.2l0,.24c2.91.19,5,.95,6.32,2.3s2.09,3.53,2.36,6.54c.21,2.4.55,3.9,1,4.5a1.84,1.84,0,0,0,1.4.9c.4,0,.6-.11.6-.32s-.15-.25-.46-.44a.88.88,0,0,1-.46-.8q0-1.08,1.2-1.08C497.49,415.45,497.89,415.9,497.89,416.81Zm-10.12-20.2q0-5.16-4.08-5.16c-.88,0-1.43.29-1.64.88a24,24,0,0,0-.2,4.36v6.64q3.12,0,4.52-1.56T487.77,396.61Z"/><path class="cls-4" d="M516.89,409.89a8.39,8.39,0,0,1-3.36,6.92,9.14,9.14,0,0,1-5.8,2.08,9,9,0,0,1-6.5-2.7,8.65,8.65,0,0,1-2.74-6.38,8.83,8.83,0,0,1,2.74-6.54,9.09,9.09,0,0,1,6.62-2.7,8.58,8.58,0,0,1,6.38,2.74A9.13,9.13,0,0,1,516.89,409.89Zm-6,0a22.74,22.74,0,0,0-.68-6.8c-.5-1.36-1.31-2-2.42-2s-1.84.71-2.43,2.14a16.1,16.1,0,0,0-.87,5.9q0,5.24,1,7.44a2.59,2.59,0,0,0,2.35,1.76c1.24,0,2.07-.75,2.46-2.24A25.83,25.83,0,0,0,510.85,409.93Z"/><path class="cls-4" d="M537.21,409.89a8.39,8.39,0,0,1-3.36,6.92,9.14,9.14,0,0,1-5.8,2.08,9,9,0,0,1-6.5-2.7,8.65,8.65,0,0,1-2.74-6.38,8.83,8.83,0,0,1,2.74-6.54,9.09,9.09,0,0,1,6.62-2.7,8.56,8.56,0,0,1,6.38,2.74A9.13,9.13,0,0,1,537.21,409.89Zm-6,0a22.74,22.74,0,0,0-.68-6.8c-.5-1.36-1.31-2-2.42-2s-1.84.71-2.43,2.14a16.1,16.1,0,0,0-.87,5.9q0,5.24,1,7.44a2.59,2.59,0,0,0,2.35,1.76c1.24,0,2.07-.75,2.46-2.24A25.83,25.83,0,0,0,531.17,409.93Z"/></svg>