<svg xmlns="http://www.w3.org/2000/svg" viewBox="0 0 481.65 449.61"><defs><style>.cls-1{fill:#fcf2e8;}</style></defs><g id="Capa_2" data-name="Capa 2"><g id="Capa_1-2" data-name="Capa 1"><polygon class="cls-1" points="169.04 266.32 169.04 266.32 169.04 266.32 169.04 266.32"/><path class="cls-1" d="M168.46,271.45l0-.31-.18-.19,0-.38-.15-3.25h-.15v-.9a1.91,1.91,0,0,1-.1-.53c0-.1,0-.21,0-.33a12,12,0,0,1-.12-2.24,8.05,8.05,0,0,1-2.56-.35c-2.44-.76-6.79-2.62-8.31-6.42a7.18,7.18,0,0,1-.44-1.17,6.85,6.85,0,0,1,1.38-6.33,10.15,10.15,0,0,1-.09-4.52c0-.15.06-.31.1-.47a12.56,12.56,0,0,1-6.51-5.58,13.22,13.22,0,0,1-.6-1.36,14.22,14.22,0,0,1-1.06-6.33l-1-.19-.09,0-.08,0-.77-.29-.83-.31-.78-.3a11.41,11.41,0,0,0-1.89-.62,21.48,21.48,0,0,0-5.42,3.66l-.6.5,0,0,0,0c-1.16.78-2,1.45-2.93,2.16a31.42,31.42,0,0,1-5.87,4,19.65,19.65,0,0,1-3.36,1.26c-1.14.35-1.14.36-1.48.82-3.2,4.49-7.57,4.8-10.45,5h-.19a8.18,8.18,0,0,0-3.25.56,20.53,20.53,0,0,0-3.54,3.77c-2.41,3-5.42,6.77-10.16,7.85l-.27.05a5.73,5.73,0,0,1-6.85-3.81c-.06-.13-.11-.27-.16-.41a7.36,7.36,0,0,1-4.92-4,7.07,7.07,0,0,1-.59-1.53,5.51,5.51,0,0,1-.18-.9,9.63,9.63,0,0,1-4-2.21,17.08,17.08,0,0,1-4.4-6.27c-2-4.56-1-9,0-12.36a4.49,4.49,0,0,0-.3-3.76A20.36,20.36,0,0,0,72.26,220l-1-.26a11.63,11.63,0,0,1-3.78-1.62l0,0a7.2,7.2,0,0,1-.41,3.89l0,.08,0,.07-.3.5a7.73,7.73,0,0,1-1.93,2.07l.25.6c1.34,3.1,1.24,5.84-.33,8.34a17.62,17.62,0,0,1-3.76,3.87l-.45.37c-.28.24-.56.46-.82.67a10.57,10.57,0,0,0-.89.74,16.08,16.08,0,0,0-1.64,2.77,17.81,17.81,0,0,1-4.56,6.23,11.67,11.67,0,0,0-1.81,2.2,15.24,15.24,0,0,1-7,6.15l-.46.19-.43-.26-5.6-3.4-.42-.26H34.14a9.4,9.4,0,0,0-3.8.72A9,9,0,0,0,26.43,258l-.07.14-.05.06a2.06,2.06,0,0,1-.13.21,7.39,7.39,0,0,1-.66,1.06l-1,1.37a10.86,10.86,0,0,0-.68,3.26,2.89,2.89,0,0,1-.06.45,2.08,2.08,0,0,0,0,.3v1.28l-1.24-.31-.33-.08a9.38,9.38,0,0,0-2.33-.39,4.12,4.12,0,0,0-2.42.62l-.78.55-.59-.75a3.18,3.18,0,0,0-2.1-1.29l-3.61,2.07c-.72,1.93-1.37,5.62-.27,8.33a5.05,5.05,0,0,0,2.91,3h0l0,0a7.28,7.28,0,0,0,2,.51h.1l4,.57-3.8,1.36a5,5,0,0,0-3,2.64,4.37,4.37,0,0,0-.06,2.66l.22.79-.73.37a1.92,1.92,0,0,1-.95.2H10.6l-.21-.1a12.72,12.72,0,0,1-1.53-1c-1.4-.94-2.73-1.82-4.32-1.82A3.89,3.89,0,0,0,1,286.29c-.48,1-1.41,2.83-.84,4.59a5.68,5.68,0,0,0,.49,1l.26.38-.13.45a4.34,4.34,0,0,0,0,2l0,.09v.1c0,6.34,3,8.1,6.5,10.14,1.31.78,1.53,3.27,1.68,6.43l0,.38c0,.42.05.86.07,1.28a22.4,22.4,0,0,0,.21,2.39l.1.52-.37.37a6.56,6.56,0,0,1-1.38,1c-1.55,1.17-3.65,2.78-4.36,5.78C2.51,327,1.69,330.76,6.87,334c.39.25.81.49,1.23.74l1.27.76c.59.38,1.19.74,1.78,1.09.83.49,1.68,1,2.46,1.54l.49.34L14,339l-.5,4.8v.11c2.32,1.37,6.55,5.66,9.05,8.29a20.63,20.63,0,0,0,2.09,2.11l0,0,0,0c1.89,1.79,3.92,3.61,5.88,5.38a177.82,177.82,0,0,1,13.47,13c4.09,4.43,7.93,9.34,11.63,14.08l2,2.57c.65.86,1.33,1.74,2,2.61l2,2.6a29.57,29.57,0,0,0,5.3,5l.33.26.15.11a20.92,20.92,0,0,1,4.65,4.41l2.7,3.78C77.52,412,80.26,416,83,420c6.93,10.3,13.79,20.32,21.35,29.57l5.36.08.19-.23c3.09-3.54,7.74-8.88,7.08-15.46-.43-3.39-.18-4.46,1.06-7.57a9.71,9.71,0,0,0,.63-4.13v-.4a3.6,3.6,0,0,1,.37-1.95v0l0,0a6.28,6.28,0,0,1,1.3-1.2h0c1.64-1.36,4.71-3.88,3.33-8.18a15.38,15.38,0,0,0-4-5.93l-.28-.29a20.6,20.6,0,0,1-1.44-1.55,18.13,18.13,0,0,1-1.34-1.69l-.19-.25-.43-.57.41-.6,23-33.17c.3-.51,1-1.58,2-3.11.44-.73,4.56-7.48,6.53-10.14l.32-.44.55,0,76.8,5.48,3.77-3.18a21.13,21.13,0,0,0-.23-4.47c-.3-1.88-.45-3.23.17-4.71l.28-.66c.32-.73.65-1.49,1.05-2.22v0a23.07,23.07,0,0,0,2.58-7.71c.62-6.4-6-8-9.47-8.92l-.07,0-1.1-.29a7.43,7.43,0,0,1-1.85-.6c-2.46-1.31-2.71-3.4-2.71-8.18s0-12.29-9-14.22H209a15.2,15.2,0,0,0-2.15-.37,12,12,0,0,1-4.17-1.11l-.27-.15-.13-.28a2.83,2.83,0,0,1-.3-.94v0a6.9,6.9,0,0,0-3.52-4.47,9.77,9.77,0,0,0-2.56-.81,2.94,2.94,0,0,1-.74-.15l-.37-.12-.18-.34a15.77,15.77,0,0,1-1-2.24l-.27-.68,0-.09a17.54,17.54,0,0,0-3.46-6.19l0,0,0,0a10.22,10.22,0,0,0-1.35-1.36l0,0,0,0c-1.84-1.84-2.46-2.46-2.69-5.23a3.28,3.28,0,0,0-.47-1.41c-3.2-.23-6.08-.54-8-.77-.93,0-1.8-.07-2.57-.12-.55,0-1-.08-1.37-.08h-.42l-.3-.3-3.8-3.9Z"/><path class="cls-1" d="M198.72,235.28c0-.24,0-.51,0-.79,0,0,.18-4.9.26-7.17h-.06a42.46,42.46,0,0,1-6.14-.41c-5-.64-7.77-3.08-10.42-5.44A16,16,0,0,1,180,218.9a4.15,4.15,0,0,0-.41-.48h-.11l-.13,0-1.5-.4-.16,0-.13-.1-.34-.07-.45-.09a12.37,12.37,0,0,1-5.07-2.37l0,.13c-.12.36-.22.68-.31.91l0,.12c0,.21,0,.46,0,.73,0,.43.05.91.06,1.43h0c.11,1.43.21,2.79.2,4a7.22,7.22,0,0,1-1.67,5.18l-.14.15-.19.08-3.2,1.4-.19.08H166a6,6,0,0,1-2-.34,11.07,11.07,0,0,1-4.07-2.43l-.07-.05-.45-.36-7.16-4.58a17.63,17.63,0,0,0-3.85-1.67l-.34-.12-.76-.28a24.93,24.93,0,0,1-5.66-2.64l-.78-.48c-4.2-2.67-12-7.64-11.64-15.12a9.56,9.56,0,0,1,.19-1.62,35.59,35.59,0,0,0,.74-6.82c0-.85,0-1.68-.06-2.53,0-.45-.06-.84-.08-1.17,0-.13,0-.26,0-.38h-.7a7.3,7.3,0,0,0-1.18.14l-.22,0a11.47,11.47,0,0,1-2.9.42c-1.85,0-5.26-.64-7.3-5l0,0v0c-.4-1-.81-2-1.13-3.08a12.78,12.78,0,0,0-.8-2.17,7.13,7.13,0,0,1-.6-1.29l-3.4-2.3-.52-.35v-.1l.08-.62.59-4c-4.69.81-8.26,3.23-11.44,5.38l-.4.27-.67.45a36,36,0,0,1-5.7,3.34,26.86,26.86,0,0,1-10.29,1.78c-1.39,0-2.69-.08-4-.17l-.59.52-.73.65-.67-.72a6.35,6.35,0,0,0-3.56-1.8,36.66,36.66,0,0,0-8.4-.88,73.6,73.6,0,0,0-8.28.49H57a4.54,4.54,0,0,0-1.38.25h-.08a5.89,5.89,0,0,1-1.54.23H53.8l-.21-.1a5.57,5.57,0,0,0-2.55-.6c-2.93,0-4.14,2.32-4.86,4.34l0,.11v1.29l-1.32-.39a3.4,3.4,0,0,0-.78-.15h-.1l-.1,0-.48-.1a13.62,13.62,0,0,0-2.82-.38,6.2,6.2,0,0,0-4.93,2.24l0,0,0,0c0,.05-.3.34-1.31,1.69l-.85,1.13-.78-1.17a4.19,4.19,0,0,0-3.87-2c-.3,0-.73.05-1.28.11l-.82.09a49.26,49.26,0,0,0-5.31,1.14l-.55.13-.12,0h-.12l-.06,0a3.09,3.09,0,0,1-.57.08,7.7,7.7,0,0,0-4.3,1.55,4.09,4.09,0,0,0-1.47,3.25v1.3a11.72,11.72,0,0,0,1.35,7l.06.1,0,.11a12.21,12.21,0,0,1,.37,2.27c0,.22.05.43.07.62l0,.39-.23.31a6.26,6.26,0,0,0-1.22,4.67c.52,3.45,3.89,5.67,7,7.49a25,25,0,0,1,3.11,2.15l0,0,.05.06c1.6,2.11,2.45,3.29,2.69,5.07.39,3.61,3.53,4.6,5.9,5H34l.31.38c1.65,2.09,4,7.58,4.59,10.31l.14.64-.54.39a5.46,5.46,0,0,0-2.68,4c-.16,2,1.22,3.52,2.27,4.47l.33.3v.74c0,.19,0,.37,0,.55v0l4.77,2.9a13.08,13.08,0,0,0,5.68-5.25,13.93,13.93,0,0,1,2.18-2.6,16.75,16.75,0,0,0,4-5.55l0-.05a16.65,16.65,0,0,1,1.92-3.19,9.92,9.92,0,0,1,2-1.64l.61-.49a13.42,13.42,0,0,0,3.15-3.25,6.31,6.31,0,0,0,.36-6.06c-.13-.35-.29-.7-.48-1.11H59.75l3-1.85a6.39,6.39,0,0,0,2.09-2l.25-.44a4.83,4.83,0,0,0,.13-3.36L64.83,216H66l.32-.15a7,7,0,0,1,.85-.4l.54-.17.43.36a8.65,8.65,0,0,0,3.47,1.59,10.09,10.09,0,0,1,1.53.48l.15.08.13.12A22,22,0,0,1,77,222.51a6.47,6.47,0,0,1,.45,5.31c-1,3-1.82,7-.09,11A15.42,15.42,0,0,0,81,243.89a7.42,7.42,0,0,0,4,2l.84.14v1.27a4.56,4.56,0,0,0,.16,1.2,5.09,5.09,0,0,0,.45,1.14,5.72,5.72,0,0,0,4,2.66l.62.15.13.62.09.35,0,.06a5.59,5.59,0,0,0,.25.73,3.92,3.92,0,0,0,3.56,2.26,4.9,4.9,0,0,0,1.06-.17c4-.91,6.54-4,9-7.05l.08-.11.4-.49a16.15,16.15,0,0,1,3.68-3.74,9.39,9.39,0,0,1,4.14-.84c3.07-.11,6.54-.53,9.15-4.18a3.65,3.65,0,0,1,2.52-1.57l.53-.18a16.85,16.85,0,0,0,2.51-1,29.33,29.33,0,0,0,5.51-3.78c.91-.71,1.83-1.42,3-2.23l.56-.47.56-.44a22.26,22.26,0,0,1,5.62-3.62l.18-.07h.18a9.67,9.67,0,0,1,3.57,1.07c.57.19,1.05.38,1.52.57l.82.16a5.92,5.92,0,0,1,.7.08l.2,0h1V230a13.37,13.37,0,0,0,.86,6.39l0,.08c.09.21.18.42.29.63,1.58,3,4.61,4.28,6.62,5.15l.89.39-.36.9a.65.65,0,0,0,0,.13l0,.15c-.11.38-.2.79-.27,1.15a8.63,8.63,0,0,0,.19,4.16l.13.53-.37.4a5,5,0,0,0-1.27,4.84,5.16,5.16,0,0,0,.34.87c1.32,2.8,5.06,4.39,6.84,4.83h.08a7.41,7.41,0,0,0,2.38.25h2.34l-.38,1.28c0,.15-.07.29-.1.43a7.86,7.86,0,0,0,0,2.78H170l0,.95.18,3.83,3.28,3.36,1.27.12c.77.06,1.7.14,2.77.25,2.49.2,5.54.5,8.49.8,4.09.29,8.35.59,11.21.59,3.27,0,6.33-.41,6.6-3.39l.9-9.3c.75-7.14,1.42-14.63,2-22.28a26,26,0,0,1-5.44-1.18C198.89,238.25,198.71,236.75,198.72,235.28Z"/><path class="cls-1" d="M305.74,235.28a7.32,7.32,0,0,1,1-4.52,6.14,6.14,0,0,1-.27-1,1.62,1.62,0,0,0,0-.18v0h0c0-.1-.05-.2-.07-.29-.81-3.85,2.27-6.27,3.75-7.44l.08-.06.06,0,0,0,.12-.11a12.87,12.87,0,0,0,.29-2.45c0-.31,0-.62.05-.9l.1-1.49c.31-3.15.41-6.21.5-9.17.05-1,.1-2,.14-3,.13-2.89.26-5.88.57-8.9l4.09-43.59a7.06,7.06,0,0,0-.12-2c-.5-2.07-1.77-4.14-3.52-6.83-.9-1.4-1.82-2.84-2.64-4.38a11.86,11.86,0,0,1-1.28-3.39,7.14,7.14,0,0,1,.07-3.87l-3.39-6.44c-.1-.19-.21-.37-.32-.54s-.25-.4-.36-.62c-1.07-1.61-3.16-4.78-2.64-8.29a8.68,8.68,0,0,1-.71-.61,19.84,19.84,0,0,1-5.08-17.48,21.14,21.14,0,0,1,.63-2.82,23.38,23.38,0,0,0,.69-3.22,5.75,5.75,0,0,1-2.26-2.35l-.23.19.31.67-.17.08a9,9,0,0,1-4.18,1.22h-.1A6.64,6.64,0,0,1,287,90.14l0,0,0,0A6.48,6.48,0,0,1,284.49,86a5.84,5.84,0,0,1-1.81-3.55,6.76,6.76,0,0,1-1.53-5.56l0-.38.29-.25L283,74.92a5.45,5.45,0,0,1-1.09-4,2.86,2.86,0,0,1,0-.42,6,6,0,0,1-.86-.39l-1,1.84-.1.2-.18.13a8.74,8.74,0,0,1-5.2,2.2h-.1a5.67,5.67,0,0,1-5-2.8h-.45c-3.28,0-7.1-2-7.1-7.7v-1.1H262l-.28,0c-2.36-.2-6.3-.55-8.57-4.13l0,0,0,0-.2-.4a7.41,7.41,0,0,1-.4-4.67c0-.8.07-1.59.09-2.36s.05-1.63.1-2.45c0-1.8,0-3.43.12-4.92l-.43.57a11.35,11.35,0,0,0-2.1,5.55l0,.22a11.59,11.59,0,0,1-.4,1.83,35.16,35.16,0,0,0-1.85,12c0,1.55-.09,3.07-.18,4.69l0,.28a35.6,35.6,0,0,1-1.61,7.07l-.23.76c-.14.53-.31,1.09-.47,1.65-.27.94-.53,1.82-.71,2.67A23.91,23.91,0,0,0,244.5,90l0,.32,0,.19a31.38,31.38,0,0,1,.28,5.18c-.26,2.89-2.54,5-6.27,5.92h-.08c-6.7,1-9.75,8.49-9.75,15a26.3,26.3,0,0,1-.89,5.75l-.13.57c-.3,1.19-.6,2.39-.79,3.55s-.29,2.11-.39,3.22a19.09,19.09,0,0,1-.54,3.7c-.55,1.63-2.3,2.8-4.54,4.17l-.14.08a21,21,0,0,0-5,3.83c-1.87,2.07-4.17,3.26-7.22,4.73a38.3,38.3,0,0,0-7,4.19c-.16.12-.32.27-.49.41a12,12,0,0,1-1.11.89,14.3,14.3,0,0,1-3.84,2.74,11.25,11.25,0,0,1-3,.66l-.72.1h-.06a20.12,20.12,0,0,0-3.81.66,18,18,0,0,0-5.85,3.18l-.21.15a15.44,15.44,0,0,1-1.45,1l-.51.32a18.42,18.42,0,0,0-5.14,4.16l-.4.55-.65-.17a3.22,3.22,0,0,0-.86-.07c-2.05,0-4.31,1.13-6.83,2.48l-.62.32-.05,0-.05,0c-1.57.59-3.19,1.3-4.75,2-.81.35-1.63.69-2.42,1s-1.53.62-2.29,1l-1.22.84-.84.58-.56-.84a2.11,2.11,0,0,0-.42-.53l-.16-.1-.1-.15c-.5-.69-1.25-1.62-1.4-1.77l-.17-.17-.08-.24c-1-3.14-4.54-3.5-7.14-3.5a72.3,72.3,0,0,0-9.06.88l-.8.11-.84.12a19.28,19.28,0,0,1-2.5.29h-1.2c-1.19,0-2.41,0-3.74-.1-.66,0-1.34,0-2-.05s-1.33,0-2,0a29.46,29.46,0,0,0-8.4,1l-.21,1.38,0,.1-.69,4.68,3.18,2.14.32.22.09.37a4.5,4.5,0,0,0,.49,1.13,7.48,7.48,0,0,1,.78,1.94c.07.21.13.43.21.66a26.52,26.52,0,0,0,1.06,2.91c1.49,3.14,3.81,3.8,5.49,3.8a10.09,10.09,0,0,0,2.46-.37h.08a11.85,11.85,0,0,1,1.76-.22,12.26,12.26,0,0,1,1.27.07l.33,0h.78l.19.76a8.18,8.18,0,0,1,.15,1.42c0,.31,0,.69.08,1.15.05.94.07,1.88.06,2.79a37.66,37.66,0,0,1-.78,7.18,9,9,0,0,0-.15,1.32c-.25,6.27,6.88,10.8,10.71,13.24l.79.49a31.7,31.7,0,0,0,5.91,2.67l.11,0,.68.26a20.78,20.78,0,0,1,3.89,1.73l7.22,4.61,0,0,0,0,.5.4a10.7,10.7,0,0,0,3.45,2.12h0l.05,0a3.49,3.49,0,0,0,1.13.23l2.8-1.23a5.23,5.23,0,0,0,1-3.58c0-1.1-.09-2.42-.2-3.81v-.14a11.21,11.21,0,0,1-.08-2.6l0-.08,0-.07.1-.3v-.06c.08-.19.17-.48.28-.82.17-.51.37-1.16.62-1.78l.67-1.68,1.07,1.46c1.4,1.93,3.74,2.55,5.15,2.93.38.09.79.19,1.13.3l1.36.37a1.93,1.93,0,0,1,.8.2l.14.07.12.11c.05,0,.13.16.24.29s.3.36.46.51l0,0,0,0,.22.27a17.18,17.18,0,0,0,1.88,2l.14.12c2.64,2.25,4.92,4.19,9.24,4.83a41.89,41.89,0,0,0,4.39.33l1.49.06H201v1.14c0,.91-.3,8.2-.3,8.2,0,.26,0,.5,0,.73,0,1.06.1,1.44,1.29,1.91a27.92,27.92,0,0,0,5.93,1.2h.12l.11,0c4.05.49,10.18,1.1,19.26,1.9l16.28,1.47c8.72.79,17.74,1.61,24.82,2.23,4.1.36,7.59.65,10.2.87l3.8.33,31.86,3h.35c2.08,0,2.67,0,3.3-4.83a15.2,15.2,0,0,1-4.15,1.22l-.31,0-.29-.14-4.2-2.1-.14-.08-.12-.11a2.81,2.81,0,0,1-.35-.48c-.05-.08-.1-.17-.17-.27a13,13,0,0,1-2.38-5A7.34,7.34,0,0,1,305.74,235.28Zm-117.6-60.86a13.52,13.52,0,0,1-.64,2.5c-.12.36-.23.71-.29.94a6.26,6.26,0,0,1-.3.87,2.45,2.45,0,0,0-.12.31l-.12.35-.32.19a12.4,12.4,0,0,1-2.19.89l-.18.07a12.87,12.87,0,0,0-4.53,2.49l-.12.11-.14.08-.45.22-1,.48c-2.27,1.13-3.2,2-3.7,3.6l-.26.84-.86-.15a18.22,18.22,0,0,1-7-2.46,13.52,13.52,0,0,0-7-2.43h-1l-.23-.68c-.08-.26-.15-.51-.22-.76a5.67,5.67,0,0,0-.22-.71l1.78-.9a.75.75,0,0,0-.55-.35h.06a8.74,8.74,0,0,0,3-.63h.05a5.53,5.53,0,0,0,.68-.25l.21-.09h.23a2.14,2.14,0,0,1,.5.07l.2,0h.1l.1,0c.41.08,1,.18,1.86.28H166c2.51,0,4.22-1.82,5.63-3.53l0,0,0,0c.14-.14.25-.28.36-.41a4.75,4.75,0,0,1,.34-.39l0-.06.06,0a9.09,9.09,0,0,1,2.36-1c.33-.13.65-.22,1-.31l.37-.1,1.51-2,.37-.51.63.12a7.91,7.91,0,0,0,1.5.08c.49,0,1,0,2.11-.09h.09a4.22,4.22,0,0,1,2.63,1.05l.71.44a13.62,13.62,0,0,0,1.77,1l.66.3Z"/><path class="cls-1" d="M479.82,37.82h-.76L479,37c-.43-3.28.2-7.56.7-10.5.52-3.43.16-5.82-3.26-7.09l-.14-.06a4.85,4.85,0,0,1-1.4-.77l-.26-.18-.23-.14-.11-.24a9.69,9.69,0,0,1-.62-2.1c-.05-.25-.11-.49-.16-.71V15.1a13.1,13.1,0,0,0-.74-2.58C471.65,9.85,469,8.2,467,7.28a19.58,19.58,0,0,0-7.58-1.76,8.71,8.71,0,0,0-2.78.35l-.06,0h-.06l-.83.16c-.61.1-1.43.25-2.37.44-6.88,1.19-11,1.95-13.13,3.13a6.23,6.23,0,0,1,1.1,1.75,6.13,6.13,0,0,1,.27.71,8,8,0,0,1,.36,3.12l-1.4,14.31-.05.48-.41.27-5.36,3.4-.09.62-.24,1.55,4.24.8h.05l.45.08.15,0,2-1.61.27-.22h1a11.4,11.4,0,0,1,4.06,1l0,0,.05,0,.4.2.29.14,0,.07.08,0,.14.29,1.25,2.5,1.35,2.59.19.37,0,.07,0,.07.18.36-.11.39-1.3,4.17c0,.16-.08.3-.11.41s0,.12,0,.17v.12a5.43,5.43,0,0,1-5.39,4.73h-.08l-1.2-.1-.3,0a7.15,7.15,0,0,1-4.9-1.63,4.56,4.56,0,0,1-1.76,1.07,8.93,8.93,0,0,1-1.27,2.4l-3,4.25a10.43,10.43,0,0,1,2.1,3.46c.85,2,.7,4.15.21,6.69,0,.12,0,.24-.05.35a2.1,2.1,0,0,0-.05.43v.1c-.28,2.79-1,9.3-6.59,9.3a20,20,0,0,1-4.67-.67h0c-.06.67-.09,1.22-.09,1.47a7.86,7.86,0,0,1-.07.92c0,.15,0,.28,0,.38v.17a8.47,8.47,0,0,0-.09,1.43c-.09,4.65-2.6,7.3-6.9,7.3a4.68,4.68,0,0,1-.67,0c-.22,0-.46-.05-.73-.05h-.12l-.12,0-.8-.2a7.43,7.43,0,0,1-5.12-4.38,2.69,2.69,0,0,1-.16.29,5.74,5.74,0,0,1-2,2.25,6.3,6.3,0,0,1,.13,2.21l-.06.39-.29.24-4.5,3.7-.28.23h-.36a4.83,4.83,0,0,0-1,.67A10.41,10.41,0,0,1,391.84,98h-.6a12.72,12.72,0,0,1-5.25-1.6l0,0h0a4,4,0,0,0-1.21-.57,11.67,11.67,0,0,0-3,.6l-1,.27-.43.12a26.34,26.34,0,0,1-4.46,1,5.28,5.28,0,0,1-1.27.11,11,11,0,0,1-1.84-.19.3.3,0,0,1,0,.08v0c-.52,1.45-1.72,4.84-5.58,5.75h-.08a24.3,24.3,0,0,1-3.8.31l-1,.08c-.25,0-.59,0-.88.06-.06.21-.14.43-.22.68l-.1.3c-.6,1.9-2.21,7-7.85,7H353c-1.64,5.77-4.72,6.77-6.41,7-1.63,3.88-4.44,4.48-6,4.48a5.07,5.07,0,0,1-1.09-.13,6.52,6.52,0,0,1-.13,2,7,7,0,0,1-6.48,5.17,5.55,5.55,0,0,1-5.3,3.91A8.46,8.46,0,0,1,323.2,133a21.16,21.16,0,0,0-2.86,1.93l-.2.15c-.5.37-1,.7-1.45,1l-.87.6-.38.27-.45-.12-5.9-1.5-.43-.11-.13-.25h0a10.94,10.94,0,0,0,1,2.41c.78,1.47,1.69,2.87,2.56,4.23l.22.36c1.71,2.74,3.19,5.11,3.68,7.67a9.26,9.26,0,0,1,.16,2.6L314,195.92c-.3,3-.43,5.92-.56,8.79-.05,1-.09,2-.14,3-.1,3-.2,6.07-.5,9.25l-.1,1.47-.06.87a10.45,10.45,0,0,1-.53,3.37L312,223l-.28.13,0,0a2.59,2.59,0,0,1-.4.33c-1.74,1.37-3.5,3-3,5.45a.75.75,0,0,0,0,.15l0,.08a6.08,6.08,0,0,0,.46,1.13l.28.55-.36.49-.07.11a5.33,5.33,0,0,0-.95,3.7,5.57,5.57,0,0,0,.15,1,10.94,10.94,0,0,0,1.93,3.69,2.57,2.57,0,0,1,.33.47l3.66,1.83A18.45,18.45,0,0,0,318,240.8l0,0h0a3.37,3.37,0,0,0,.57-.24,3.66,3.66,0,0,1,1.55-.41,3.12,3.12,0,0,1,1.92.92l.05,0,0,0,.28.25c.2.18.46.39.72.65,3,2.73,5.75,5,8.49,5a4.41,4.41,0,0,0,3.67-2,10,10,0,0,0,1.28-2.66v-.06a8.56,8.56,0,0,1,.7-1.48l.09-.15.14-.1.8-.6.3-.24c2-1.62,4.28-3.46,5.61-6.11a17.34,17.34,0,0,0,.8-2.08c.11-.33.23-.67.35-1,.17-.52.32-1,.43-1.42s.12-.43.16-.55l.13-.4.37-.18.43-.19.27-.11.11,0a8.49,8.49,0,0,0,3.55-2.57,8.1,8.1,0,0,0,1.41-3.57v-.06l.06-.24a2.63,2.63,0,0,1,.44-1.15,5.94,5.94,0,0,1,.56-.63,3.3,3.3,0,0,0,.41-.44l0-.05.05-.05a11.1,11.1,0,0,0,3.71-6.3c.11-1.9,3.14-1.9,4.3-1.9a17.63,17.63,0,0,1,2.28.1,4.25,4.25,0,0,1,1.14.25,7.58,7.58,0,0,0,2.18.35,4.55,4.55,0,0,0,4.21-2.55,18.24,18.24,0,0,1,3-3.82l1.9-2.1c2.08-2.3,4.08-4.79,3.75-7.71l-.1-.81.77-.26a6,6,0,0,0,2.67-1.61L385,191l.36,2a6.36,6.36,0,0,1-.24,3.62,11.05,11.05,0,0,1-1.87,2.46l-.32.36c-2.19,2.63-4.7,5.64-4.17,8.56.34,1.94,2.36,3.44,5.18,5.35l0,0,0,0,.47.37c.28.19.63.39,1,.59s.73.42,1.1.65a8.2,8.2,0,0,0,.81.37h.48l.29.51c.56,1,1,4.24,1.13,6.14a4.47,4.47,0,0,1-.11,1.1v.05c-.45,6.9,1.2,8.74,3.22,9.37l2.2-2.88.47-.61.71.3,1.19.51c1.17-2.61,4.3-9.37,4.86-10.3l.58-1.07a19,19,0,0,1,2.28-3.54l1.32-2.47c.1-1,.18-2,.18-3.11v-.1q.06-.72.09-1.5c0-.51.05-1,.1-1.59.32-3.6,1.37-5.68,4.48-8.9,3.57-3.67,4.56-8.69,5.42-13.12l0-.08a32.2,32.2,0,0,1,.71-3.27,63,63,0,0,1,4.87-12.48l0-.06,0,0,.18-.29c.2-.3.46-.72.84-1.24,2.58-3.79,5.27-7.72,3.73-10.85a4.88,4.88,0,0,0-1.16-1.4l-1.27-1.06,1.53-.63a9.44,9.44,0,0,0,3.14-2.35c3-3.28,3.8-7.6,4.11-11.11l-3.14-3.82h-.43a11.78,11.78,0,0,0-5.43,1.63l-.32.17a20.19,20.19,0,0,1-2.33,1.05l-.06,0h-.06a17.19,17.19,0,0,1-2.21.25l-1,.07h-.09a3.22,3.22,0,0,0-.86.07l-.78.2-.35-.72a2.26,2.26,0,0,1-.19-.6l0-.14-.56-1.11,1.23-.27a3.68,3.68,0,0,0,.89-.32l0,0h0c2.16-.91,3.13-3,3.9-4.63l.09-.17c.08-.17.13-.31.18-.44a4.13,4.13,0,0,1,.39-.79l0-.09.07-.07c.44-.45.82-.59,2.17-.78l.32-.05a10.65,10.65,0,0,0,3.91-1.22c4.1-2.4,3.59-7.5,3.32-10.24l-.1-.89c-.94-12.46,5.82-20.75,14.76-30.29a35.94,35.94,0,0,1,5.66-4.64,39.77,39.77,0,0,0,7-5.94,24.09,24.09,0,0,0,2.1-3c.87-1.35,3-4.51,4.1-5.07l0,0h0l1.3-.56c6.26-4.32,7.74-8.07,9.43-13.71a5.84,5.84,0,0,1,1.18-2c.18-.24.37-.49.56-.76l.5-.68a16.49,16.49,0,0,0,1.9-2.94l.28-.76c.07-.18.15-.39.25-.6l.1-.78.8-6.07-.66-.3A10.24,10.24,0,0,0,479.82,37.82Z"/><path class="cls-1" d="M432.78,34l.2-1.32.21-1.36.92.46,4.61-2.93L440.08,15a6.23,6.23,0,0,0-.26-2.29c-.08-.24-.14-.4-.2-.55a5.1,5.1,0,0,0-1.38-1.79,7.77,7.77,0,0,0-3.06-1.29,68.63,68.63,0,0,0-7.59-1L426.42,8a41.87,41.87,0,0,1-7.12-1.12,13,13,0,0,1-4.11-2.25,25.56,25.56,0,0,0-4.81-2.69A28.62,28.62,0,0,0,400.27,0a26.89,26.89,0,0,0-2.89.19,12.11,12.11,0,0,0-4.2,1.57l0,0h0l-.34.17a4.88,4.88,0,0,1-2.11.74,3.33,3.33,0,0,1-1.41-.5c-.2-.1-.4-.21-.56-.27l-.05,0-.06,0A12.67,12.67,0,0,0,384.7.38,21.39,21.39,0,0,0,381.17.1c-5.4,0-10.64,1.9-16,5.81s-12.24,4.29-18.39,4.29c-1.17,0-2.33,0-3.44,0s-2.18-.05-3.26-.05c-2.22-.1-4.45-.1-6.6-.1-1.37,0-2.66,0-4,.1h-.28c-1.72.1-3.35.19-5.09.19a24.39,24.39,0,0,1-5-.4h-1.13l-20.23,2.79c-5.58.76-10.79,2.92-15.83,5l-.52.22-.65.27A71.43,71.43,0,0,1,270,22.07a17.56,17.56,0,0,1-2,.42H268c-2.56.49-5.47,1.05-8,4.31a21.6,21.6,0,0,0-3.42,7.85l-.3,1.1a30.06,30.06,0,0,0-.88,4.08,68.52,68.52,0,0,0-.49,9,43.5,43.5,0,0,1-.2,5v.06a5.63,5.63,0,0,0,.22,3.5l.17.33c1.66,2.71,4.77,3,7,3.17l.23,0a4.25,4.25,0,0,1,1.27.15l.68.23V64c0,4.16,2.61,5.67,5,5.7h.08a3.18,3.18,0,0,0,.64,0l.07,0h0l.8-.27.36.85a3.51,3.51,0,0,0,3.43,2.29h.07a6.58,6.58,0,0,0,3.81-1.67L280,68.27l0,0,.55-1,.93.7c.17.12.33.24.5.34a3.61,3.61,0,0,0,1.27.51l.13,0,.11,0,1.14.12L284.34,70a4.75,4.75,0,0,0-.17,1v.06a4,4,0,0,0,1.21,3.23l.76.76-.81.7-2,1.74a4.44,4.44,0,0,0,1.25,3.8l.27.27,0,.38a3.91,3.91,0,0,0,1.46,2.81l.3.26,0,.4a4.38,4.38,0,0,0,4.36,4h.09a4.49,4.49,0,0,0,1-.13l.78-.64,2.21-1.83.09-.07,1.27-1,.34,1.61a3.81,3.81,0,0,0,2.3,2.79l.68.27-.06.73a24,24,0,0,1-.59,3.22c-.09.38-.17.72-.23,1v.09a17,17,0,0,0-.57,2.53,17.9,17.9,0,0,0,4.53,15.78,5.81,5.81,0,0,0,.94.77l.56.37-.14.67c-.58,2.72.89,5.39,2.24,7.41a10.3,10.3,0,0,1,.78,1.33l3.55,6.74.24.44,1.09,2.11,5,1.28.53-.36c.45-.3.91-.62,1.37-1l.2-.15A18.56,18.56,0,0,1,323,131l.18-.08h.2a1.06,1.06,0,0,1,.46.1h0l0,0,.1.06.1.06.15.08a7,7,0,0,0,3.44,1.28,3.53,3.53,0,0,0,3.51-3l.12-.86h1.27A5.07,5.07,0,0,0,337.5,125a3.9,3.9,0,0,0-.08-2.15l-.19-.59.43-.44.26-.25.15-.15.43-.43.59.19a5.74,5.74,0,0,0,1.58.35c2,0,3.48-1.29,4.36-3.74l.21-.59.63-.06c3.45-.37,4.64-3.13,5.41-6a1.29,1.29,0,0,1,.39-.87l.29-.29h.41a4.22,4.22,0,0,1,.64.06l.36,0c4.18,0,5.37-3.78,5.95-5.6l.11-.33c.05-.15.12-.35.17-.52l-.62-.62,1.25-.62a5.66,5.66,0,0,1,2.07-.33l1-.07h.11a23.09,23.09,0,0,0,3.51-.28c2.77-.67,3.65-3.14,4.12-4.46l0-.1,0,0,0-.06a5.36,5.36,0,0,0,.24-.67l.23-.68h1l.63.1a8.75,8.75,0,0,0,1.63.19,3.22,3.22,0,0,0,.86-.07l.06,0h.07a24.58,24.58,0,0,0,4.18-.94l.46-.13,1-.27a13.24,13.24,0,0,1,3.52-.67,4.68,4.68,0,0,1,2.17.82A10.82,10.82,0,0,0,391.42,96H392a8.5,8.5,0,0,0,5.66-2.36,5,5,0,0,1,1.82-1.09l4-3.25a7.74,7.74,0,0,0-.2-1.5v-.06l-.91-.91,1.41-.56a3.46,3.46,0,0,0,1.78-1.72l0,0v0a5.44,5.44,0,0,0,.6-1.46l.21-.73h2.35l.18.78c.07.3.15.6.24.87a5.44,5.44,0,0,0,4,3.69l.65.16c.33,0,.6,0,.83.06a3.42,3.42,0,0,0,.44,0c3.23,0,4.83-1.74,4.9-5.32a10.86,10.86,0,0,1,.1-1.67c0-.16,0-.33,0-.51a5.49,5.49,0,0,0,.05-.7c0-.7.16-2.32.21-2.8l.12-1.24,1.19.39a1.57,1.57,0,0,0,.3.06,4.21,4.21,0,0,1,.55.13l.21,0a18.13,18.13,0,0,0,4.22.62c3.52,0,4.23-3.84,4.6-7.46a5.23,5.23,0,0,1,.08-.71,1,1,0,0,0,0-.15v-.1l0-.07c.53-2.71.51-4.24-.09-5.64a11.34,11.34,0,0,0-2.36-3.29l-.56-.59.48-.67.11-.16,3.49-4.94a7.61,7.61,0,0,0,1.1-2.16l.08-.21.18-.49.51-.13a2.7,2.7,0,0,0,1.79-1.26l.3-.47h.55a1.52,1.52,0,0,1,1.11.39l.17.17.07.22,0,.1c1,1,2.35,1.12,3.75,1.2l.33,0,1.18.1a3.41,3.41,0,0,0,3.37-3,2.2,2.2,0,0,1,.13-.6q0-.14.09-.33V46.6l1.18-3.81,0-.08L447.23,40l-1.1-2.19-.06,0a9.37,9.37,0,0,0-3.3-.82h-.25l-2.13,1.68L440,39l-.51-.17a2.19,2.19,0,0,0-.37-.06l-.63-.11-5.27-1-1-.18.16-1,1,.08-1-.16C432.53,35.68,432.66,34.82,432.78,34Z"/></g></g></svg>